<?xml version="1.0" encoding="UTF-8"?>
<!DOCTYPE svg PUBLIC "-//W3C//DTD SVG 1.1//EN" "http://www.w3.org/Graphics/SVG/1.1/DTD/svg11.dtd">
<svg xmlns="http://www.w3.org/2000/svg" version="1.1" width="100px" height="100px" style="shape-rendering:geometricPrecision; text-rendering:geometricPrecision; image-rendering:optimizeQuality; fill-rule:evenodd; clip-rule:evenodd" xmlns:xlink="http://www.w3.org/1999/xlink">
<g><path style="opacity:0.746" fill="#fefffe" d="M 34.5,-0.5 C 37.8333,-0.5 41.1667,-0.5 44.5,-0.5C 46.1233,0.77943 47.79,2.11276 49.5,3.5C 51.21,2.11276 52.8767,0.77943 54.5,-0.5C 57.8333,-0.5 61.1667,-0.5 64.5,-0.5C 66.6038,1.0987 68.6038,2.93204 70.5,5C 78.908,6.614 82.908,11.7807 82.5,20.5C 85.0942,21.5922 87.2609,23.2589 89,25.5C 90.5837,30.5778 92.2503,35.5778 94,40.5C 94.7382,44.7097 94.5715,48.8764 93.5,53C 98.6598,61.978 97.1598,69.478 89,75.5C 88.1063,82.0568 84.6063,86.5568 78.5,89C 76.3105,93.6873 72.9772,97.1873 68.5,99.5C 64.8333,99.5 61.1667,99.5 57.5,99.5C 54.6148,97.9694 51.9481,95.9694 49.5,93.5C 47.0519,95.9694 44.3852,97.9694 41.5,99.5C 37.8333,99.5 34.1667,99.5 30.5,99.5C 26.0228,97.1873 22.6895,93.6873 20.5,89C 14.3937,86.5568 10.8937,82.0568 10,75.5C 1.84017,69.478 0.340171,61.978 5.5,53C 4.4285,48.8764 4.26183,44.7097 5,40.5C 6.74968,35.5778 8.41634,30.5778 10,25.5C 11.7391,23.2589 13.9058,21.5922 16.5,20.5C 16.1067,11.737 20.1067,6.57036 28.5,5C 30.3962,2.93204 32.3962,1.0987 34.5,-0.5 Z M 36.5,3.5 C 39.3198,3.24751 41.9865,3.74751 44.5,5C 46.069,7.9835 47.7357,10.8168 49.5,13.5C 51.1947,11.4649 52.528,9.13157 53.5,6.5C 59.5984,1.79573 64.265,2.9624 67.5,10C 72.6738,9.17876 76.0071,11.1788 77.5,16C 76.2088,18.0503 75.7088,20.217 76,22.5C 79.2904,23.6452 82.2904,25.3119 85,27.5C 86.5753,32.8759 88.242,38.2093 90,43.5C 90.9792,47.2952 90.1458,50.6285 87.5,53.5C 94.6679,61.514 93.5012,68.1806 84,73.5C 83.8547,79.9552 80.6881,84.1219 74.5,86C 69.8518,96.2778 63.0184,98.1111 54,91.5C 52.4511,88.6883 51.6178,85.6883 51.5,82.5C 50.1667,82.5 48.8333,82.5 47.5,82.5C 47.1897,92.3112 42.1897,96.4778 32.5,95C 28.7771,92.9435 26.1104,89.9435 24.5,86C 18.3119,84.1219 15.1453,79.9552 15,73.5C 5.49876,68.1806 4.3321,61.514 11.5,53.5C 9.67938,51.5247 8.67938,49.1914 8.5,46.5C 10.4704,40.2183 12.3038,33.8849 14,27.5C 16.7096,25.3119 19.7096,23.6452 23,22.5C 23.2912,20.217 22.7912,18.0503 21.5,16C 22.9929,11.1788 26.3262,9.17876 31.5,10C 32.5937,7.2735 34.2604,5.10683 36.5,3.5 Z M 34.5,30.5 C 35.8333,30.5 37.1667,30.5 38.5,30.5C 38.9899,32.9484 38.1566,34.615 36,35.5C 33.3894,34.5001 32.8894,32.8334 34.5,30.5 Z M 65.5,30.5 C 69.1378,29.7366 70.6378,31.0699 70,34.5C 66.3307,36.0093 64.8307,34.6759 65.5,30.5 Z M 43.5,34.5 C 49.2055,34.1712 54.8722,34.5046 60.5,35.5C 59.1255,36.7113 57.6255,37.7113 56,38.5C 52.8189,37.2103 49.6523,37.2103 46.5,38.5C 44.7118,37.7174 43.7118,36.3841 43.5,34.5 Z M 36.5,39.5 C 41.7086,39.3693 43.3753,41.7026 41.5,46.5C 38.7794,48.3885 36.1128,48.5552 33.5,47C 34.6011,44.5279 35.6011,42.0279 36.5,39.5 Z M 62.5,39.5 C 63.552,39.3505 64.552,39.5172 65.5,40C 64.7871,45.1432 63.9537,50.3098 63,55.5C 58.6895,52.2671 57.6895,47.9337 60,42.5C 61.045,41.6266 61.8783,40.6266 62.5,39.5 Z M 49.5,41.5 C 55.3347,42.333 56.6681,45.1663 53.5,50C 46.3445,49.8565 45.0111,47.0231 49.5,41.5 Z M 27.5,50.5 C 28.8734,50.3433 30.2068,50.51 31.5,51C 32.474,53.702 31.474,55.0354 28.5,55C 26.4523,53.7741 26.119,52.2741 27.5,50.5 Z M 39.5,51.5 C 41.1992,51.3398 42.8659,51.5065 44.5,52C 45.0219,52.5613 45.3552,53.228 45.5,54C 44.8196,57.2411 43.4863,60.0745 41.5,62.5C 39.7122,60.2092 37.7122,58.0425 35.5,56C 36.3366,54.9887 36.67,53.8221 36.5,52.5C 37.791,52.7373 38.791,52.404 39.5,51.5 Z M 50.5,54.5 C 55.558,54.2277 58.558,56.5611 59.5,61.5C 55.1227,62.5154 50.7894,63.3487 46.5,64C 47.9775,60.8802 49.3108,57.7136 50.5,54.5 Z M 63.5,60.5 C 68.8333,61.5 68.8333,62.5 63.5,63.5C 63.5,62.5 63.5,61.5 63.5,60.5 Z M 42.5,66.5 C 43.7733,67.0768 43.7733,67.7435 42.5,68.5C 41.537,68.0302 41.537,67.3635 42.5,66.5 Z"/></g>
<g><path style="opacity:0.67" fill="#fefffe" d="M 30.5,14.5 C 35.7403,13.5384 39.9069,15.2051 43,19.5C 43.8333,22.6667 42.6667,23.8333 39.5,23C 37.6061,20.1077 34.9394,18.441 31.5,18C 30.6634,16.9887 30.33,15.8221 30.5,14.5 Z"/></g>
<g><path style="opacity:0.67" fill="#fefffe" d="M 61.5,14.5 C 63.8333,14.5 66.1667,14.5 68.5,14.5C 68.5674,17.766 66.9008,19.266 63.5,19C 61.6308,20.5436 59.7975,22.0436 58,23.5C 55.8125,22.9407 55.1458,21.6073 56,19.5C 57.7297,17.5981 59.563,15.9314 61.5,14.5 Z"/></g>
<g><path style="opacity:0.772" fill="#fefffe" d="M 33.5,25.5 C 37.3872,24.9454 40.3872,26.2787 42.5,29.5C 48.8333,30.8333 55.1667,30.8333 61.5,29.5C 65.2829,24.6451 69.4496,24.3117 74,28.5C 75.4804,33.1467 74.3137,36.8133 70.5,39.5C 67.577,47.3891 67.9103,55.0557 71.5,62.5C 69.1049,69.0996 65.1049,70.0996 59.5,65.5C 55.8081,66.5639 52.1414,67.7305 48.5,69C 45.5682,74.1133 42.0682,74.6133 38,70.5C 37.3588,62.8594 33.1921,59.0261 25.5,59C 20.5142,52.3299 22.0142,47.4966 30,44.5C 31.7179,41.7224 31.7179,39.0557 30,36.5C 28.518,31.774 29.6847,28.1074 33.5,25.5 Z M 34.5,30.5 C 32.8894,32.8334 33.3894,34.5001 36,35.5C 38.1566,34.615 38.9899,32.9484 38.5,30.5C 37.1667,30.5 35.8333,30.5 34.5,30.5 Z M 65.5,30.5 C 64.8307,34.6759 66.3307,36.0093 70,34.5C 70.6378,31.0699 69.1378,29.7366 65.5,30.5 Z M 43.5,34.5 C 43.7118,36.3841 44.7118,37.7174 46.5,38.5C 49.6523,37.2103 52.8189,37.2103 56,38.5C 57.6255,37.7113 59.1255,36.7113 60.5,35.5C 54.8722,34.5046 49.2055,34.1712 43.5,34.5 Z M 36.5,39.5 C 35.6011,42.0279 34.6011,44.5279 33.5,47C 36.1128,48.5552 38.7794,48.3885 41.5,46.5C 43.3753,41.7026 41.7086,39.3693 36.5,39.5 Z M 62.5,39.5 C 61.8783,40.6266 61.045,41.6266 60,42.5C 57.6895,47.9337 58.6895,52.2671 63,55.5C 63.9537,50.3098 64.7871,45.1432 65.5,40C 64.552,39.5172 63.552,39.3505 62.5,39.5 Z M 49.5,41.5 C 45.0111,47.0231 46.3445,49.8565 53.5,50C 56.6681,45.1663 55.3347,42.333 49.5,41.5 Z M 27.5,50.5 C 26.119,52.2741 26.4523,53.7741 28.5,55C 31.474,55.0354 32.474,53.702 31.5,51C 30.2068,50.51 28.8734,50.3433 27.5,50.5 Z M 39.5,51.5 C 38.791,52.404 37.791,52.7373 36.5,52.5C 36.67,53.8221 36.3366,54.9887 35.5,56C 37.7122,58.0425 39.7122,60.2092 41.5,62.5C 43.4863,60.0745 44.8196,57.2411 45.5,54C 45.3552,53.228 45.0219,52.5613 44.5,52C 42.8659,51.5065 41.1992,51.3398 39.5,51.5 Z M 50.5,54.5 C 49.3108,57.7136 47.9775,60.8802 46.5,64C 50.7894,63.3487 55.1227,62.5154 59.5,61.5C 58.558,56.5611 55.558,54.2277 50.5,54.5 Z M 63.5,60.5 C 63.5,61.5 63.5,62.5 63.5,63.5C 68.8333,62.5 68.8333,61.5 63.5,60.5 Z M 42.5,66.5 C 41.537,67.3635 41.537,68.0302 42.5,68.5C 43.7733,67.7435 43.7733,67.0768 42.5,66.5 Z"/></g>
<g><path style="opacity:0.702" fill="#fefffe" d="M 21.5,30.5 C 23.9484,30.0101 25.615,30.8434 26.5,33C 23.7115,34.4818 21.3782,36.4818 19.5,39C 18.2068,39.49 16.8734,39.6567 15.5,39.5C 15.9319,35.4103 17.9319,32.4103 21.5,30.5 Z"/></g>
<g><path style="opacity:0.69" fill="#fefffe" d="M 74.5,40.5 C 81.0801,40.0857 84.4134,43.0857 84.5,49.5C 81.4377,48.3338 78.4377,46.8338 75.5,45C 74.6198,43.6439 74.2865,42.1439 74.5,40.5 Z"/></g>
<g><path style="opacity:0.69" fill="#fefffe" d="M 12.5,59.5 C 19.0929,58.5127 22.5929,61.1793 23,67.5C 22.4387,68.0219 21.772,68.3552 21,68.5C 19.059,65.8907 16.559,64.0574 13.5,63C 12.6634,61.9887 12.33,60.8221 12.5,59.5 Z"/></g>
<g><path style="opacity:0.69" fill="#fefffe" d="M 80.5,59.5 C 82.5,59.5 84.5,59.5 86.5,59.5C 86.6495,60.552 86.4828,61.552 86,62.5C 82.7703,63.7272 80.1036,65.7272 78,68.5C 76.5,68.3333 75.6667,67.5 75.5,66C 76.2831,63.0622 77.9497,60.8955 80.5,59.5 Z"/></g>
<g><path style="opacity:0.715" fill="#fefffe" d="M 24.5,75.5 C 27.3128,75.5481 29.9795,76.2147 32.5,77.5C 35.0289,76.0403 37.6956,75.5403 40.5,76C 41.731,77.1827 41.731,78.3493 40.5,79.5C 38.8849,80.154 37.2182,80.654 35.5,81C 38.8889,83.6557 39.0556,86.1557 36,88.5C 33.6744,84.1705 30.1744,81.3372 25.5,80C 24.6198,78.6439 24.2865,77.1439 24.5,75.5 Z"/></g>
<g><path style="opacity:0.714" fill="#fefffe" d="M 58.5,75.5 C 61.3128,75.5481 63.9795,76.2147 66.5,77.5C 69.0205,76.2147 71.6872,75.5481 74.5,75.5C 75.1258,79.3754 73.4592,81.2087 69.5,81C 66.9709,83.2525 64.8042,85.7525 63,88.5C 59.9444,86.1557 60.1111,83.6557 63.5,81C 61.7818,80.654 60.1151,80.154 58.5,79.5C 57.3744,78.1916 57.3744,76.8583 58.5,75.5 Z"/></g>
</svg>
